<svg xmlns="http://www.w3.org/2000/svg" xmlns:xlink="http://www.w3.org/1999/xlink" xmlns:ev="http://www.w3.org/2001/xml-events" version="1.1" width="1094.21875" height="793" viewBox="-15 -15 1094.21875 793"><text style="font-family: Verdana; font-size: 12px; font-weight: normal; fill: #000000; line-height: 15px;" transform="translate(684, 15)"><tspan x="0" y="0">1. Trivial Sigma Algebra</tspan><tspan x="0" y="15">2. Element of F  (2 Words)</tspan><tspan x="0" y="30">3. Countable _ are included</tspan><tspan x="0" y="45">4. Infinite _ are included</tspan><tspan x="0" y="60">5. Combination tool for multiple algebras (2 Words)</tspan><tspan x="0" y="75">6. Logical Representation of an Element of the Product Algebra (Abbreviation)</tspan><tspan x="0" y="90">7. Element of Borel Algebra on the reals</tspan><tspan x="0" y="105">8. Property of Constrains in the Product Algebra</tspan><tspan x="0" y="120">9. The opposite of an event</tspan><tspan x="0" y="135">10. Dimension in Machine Learning</tspan><tspan x="0" y="150">11. Other word for Symbolic</tspan><tspan x="0" y="165">12. Not Discrete</tspan></text><g><g><rect x="459" y="493" width="35" height="35" fill="#000000"></rect><rect x="494" y="493" width="35" height="35" fill="#000000"></rect><rect x="529" y="493" width="35" height="35" fill="#000000"></rect><rect x="599" y="493" width="35" height="35" fill="#000000"></rect><rect x="319" y="493" width="35" height="35" fill="#000000"></rect><rect x="179" y="493" width="35" height="35" fill="#000000"></rect><rect x="494" y="528" width="35" height="35" fill="#000000"></rect><rect x="599" y="528" width="35" height="35" fill="#000000"></rect><rect x="319" y="528" width="35" height="35" fill="#000000"></rect><rect x="179" y="528" width="35" height="35" fill="#000000"></rect><rect x="494" y="563" width="35" height="35" fill="#000000"></rect><rect x="599" y="563" width="35" height="35" fill="#000000"></rect><rect x="319" y="563" width="35" height="35" fill="#000000"></rect><rect x="179" y="563" width="35" height="35" fill="#000000"></rect><rect x="459" y="598" width="35" height="35" fill="#000000"></rect><rect x="494" y="598" width="35" height="35" fill="#000000"></rect><rect x="529" y="598" width="35" height="35" fill="#000000"></rect><rect x="564" y="598" width="35" height="35" fill="#000000"></rect><rect x="599" y="598" width="35" height="35" fill="#000000"></rect><rect x="634" y="598" width="35" height="35" fill="#000000"></rect><rect x="284" y="598" width="35" height="35" fill="#000000"></rect><rect x="319" y="598" width="35" height="35" fill="#000000"></rect><rect x="354" y="598" width="35" height="35" fill="#000000"></rect><rect x="389" y="598" width="35" height="35" fill="#000000"></rect><rect x="424" y="598" width="35" height="35" fill="#000000"></rect><rect x="494" y="633" width="35" height="35" fill="#000000"></rect><rect x="599" y="633" width="35" height="35" fill="#000000"></rect><rect x="319" y="633" width="35" height="35" fill="#000000"></rect><rect x="459" y="423" width="35" height="35" fill="#000000"></rect><rect x="599" y="423" width="35" height="35" fill="#000000"></rect><rect x="319" y="423" width="35" height="35" fill="#000000"></rect><rect x="144" y="423" width="35" height="35" fill="#000000"></rect><rect x="179" y="423" width="35" height="35" fill="#000000"></rect><rect x="214" y="423" width="35" height="35" fill="#000000"></rect><rect x="249" y="423" width="35" height="35" fill="#000000"></rect><rect x="284" y="423" width="35" height="35" fill="#000000"></rect><rect x="354" y="423" width="35" height="35" fill="#000000"></rect><rect x="389" y="423" width="35" height="35" fill="#000000"></rect><rect x="424" y="423" width="35" height="35" fill="#000000"></rect><rect x="39" y="423" width="35" height="35" fill="#000000"></rect><rect x="494" y="458" width="35" height="35" fill="#000000"></rect><rect x="599" y="458" width="35" height="35" fill="#000000"></rect><rect x="319" y="458" width="35" height="35" fill="#000000"></rect><rect x="179" y="458" width="35" height="35" fill="#000000"></rect><rect x="39" y="458" width="35" height="35" fill="#000000"></rect><rect x="319" y="213" width="35" height="35" fill="#000000"></rect><rect x="179" y="213" width="35" height="35" fill="#000000"></rect><rect x="389" y="213" width="35" height="35" fill="#000000"></rect><rect x="39" y="213" width="35" height="35" fill="#000000"></rect><rect x="599" y="248" width="35" height="35" fill="#000000"></rect><rect x="319" y="248" width="35" height="35" fill="#000000"></rect><rect x="179" y="248" width="35" height="35" fill="#000000"></rect><rect x="389" y="248" width="35" height="35" fill="#000000"></rect><rect x="39" y="248" width="35" height="35" fill="#000000"></rect><rect x="459" y="283" width="35" height="35" fill="#000000"></rect><rect x="494" y="283" width="35" height="35" fill="#000000"></rect><rect x="529" y="283" width="35" height="35" fill="#000000"></rect><rect x="564" y="283" width="35" height="35" fill="#000000"></rect><rect x="599" y="283" width="35" height="35" fill="#000000"></rect><rect x="634" y="283" width="35" height="35" fill="#000000"></rect><rect x="319" y="283" width="35" height="35" fill="#000000"></rect><rect x="179" y="283" width="35" height="35" fill="#000000"></rect><rect x="389" y="283" width="35" height="35" fill="#000000"></rect><rect x="424" y="283" width="35" height="35" fill="#000000"></rect><rect x="39" y="283" width="35" height="35" fill="#000000"></rect><rect x="599" y="318" width="35" height="35" fill="#000000"></rect><rect x="319" y="318" width="35" height="35" fill="#000000"></rect><rect x="179" y="318" width="35" height="35" fill="#000000"></rect><rect x="389" y="318" width="35" height="35" fill="#000000"></rect><rect x="39" y="318" width="35" height="35" fill="#000000"></rect><rect x="599" y="353" width="35" height="35" fill="#000000"></rect><rect x="319" y="353" width="35" height="35" fill="#000000"></rect><rect x="179" y="353" width="35" height="35" fill="#000000"></rect><rect x="389" y="353" width="35" height="35" fill="#000000"></rect><rect x="39" y="353" width="35" height="35" fill="#000000"></rect><rect x="599" y="388" width="35" height="35" fill="#000000"></rect><rect x="319" y="388" width="35" height="35" fill="#000000"></rect><rect x="179" y="388" width="35" height="35" fill="#000000"></rect><rect x="389" y="388" width="35" height="35" fill="#000000"></rect><rect x="39" y="388" width="35" height="35" fill="#000000"></rect><rect x="179" y="178" width="35" height="35" fill="#000000"></rect><rect x="4" y="178" width="35" height="35" fill="#000000"></rect><rect x="39" y="178" width="35" height="35" fill="#000000"></rect><rect x="74" y="178" width="35" height="35" fill="#000000"></rect><rect x="109" y="178" width="35" height="35" fill="#000000"></rect><rect x="144" y="178" width="35" height="35" fill="#000000"></rect><rect x="214" y="178" width="35" height="35" fill="#000000"></rect><rect x="249" y="178" width="35" height="35" fill="#000000"></rect><rect x="389" y="178" width="35" height="35" fill="#000000"></rect><rect x="179" y="3" width="35" height="35" fill="#000000"></rect><rect x="74" y="3" width="35" height="35" fill="#000000"></rect><rect x="109" y="3" width="35" height="35" fill="#000000"></rect><rect x="144" y="3" width="35" height="35" fill="#000000"></rect><rect x="214" y="3" width="35" height="35" fill="#000000"></rect><rect x="249" y="3" width="35" height="35" fill="#000000"></rect><rect x="284" y="3" width="35" height="35" fill="#000000"></rect><rect x="319" y="3" width="35" height="35" fill="#000000"></rect><rect x="179" y="38" width="35" height="35" fill="#000000"></rect><rect x="179" y="73" width="35" height="35" fill="#000000"></rect><rect x="179" y="108" width="35" height="35" fill="#000000"></rect><rect x="179" y="143" width="35" height="35" fill="#000000"></rect><rect x="39" y="143" width="35" height="35" fill="#000000"></rect></g><g transform="translate(455, 490)"><rect x="0" y="0" width="35" height="35" fill="#ffffff" stroke="#000000" stroke-width="1"></rect><text x="0.5" y="10.5" style="line-height: 1; font-family: Verdana; font-size: 10px; font-weight: normal; fill: #000000;">▸6</text></g><g transform="translate(490, 490)"><rect x="0" y="0" width="35" height="35" fill="#ffffff" stroke="#000000" stroke-width="1"></rect></g><g transform="translate(525, 490)"><rect x="0" y="0" width="35" height="35" fill="#ffffff" stroke="#000000" stroke-width="1"></rect></g><g transform="translate(595, 490)"><rect x="0" y="0" width="35" height="35" fill="#ffffff" stroke="#000000" stroke-width="1"></rect></g><g transform="translate(315, 490)"><rect x="0" y="0" width="35" height="35" fill="#ffffff" stroke="#000000" stroke-width="1"></rect></g><g transform="translate(175, 490)"><rect x="0" y="0" width="35" height="35" fill="#ffffff" stroke="#000000" stroke-width="1"></rect></g><g transform="translate(490, 525)"><rect x="0" y="0" width="35" height="35" fill="#ffffff" stroke="#000000" stroke-width="1"></rect></g><g transform="translate(595, 525)"><rect x="0" y="0" width="35" height="35" fill="#ffffff" stroke="#000000" stroke-width="1"></rect></g><g transform="translate(315, 525)"><rect x="0" y="0" width="35" height="35" fill="#ffffff" stroke="#000000" stroke-width="1"></rect></g><g transform="translate(175, 525)"><rect x="0" y="0" width="35" height="35" fill="#ffffff" stroke="#000000" stroke-width="1"></rect></g><g transform="translate(490, 560)"><rect x="0" y="0" width="35" height="35" fill="#ffffff" stroke="#000000" stroke-width="1"></rect></g><g transform="translate(595, 560)"><rect x="0" y="0" width="35" height="35" fill="#ffffff" stroke="#000000" stroke-width="1"></rect></g><g transform="translate(315, 560)"><rect x="0" y="0" width="35" height="35" fill="#ffffff" stroke="#000000" stroke-width="1"></rect></g><g transform="translate(175, 560)"><rect x="0" y="0" width="35" height="35" fill="#ffffff" stroke="#000000" stroke-width="1"></rect></g><g transform="translate(455, 595)"><rect x="0" y="0" width="35" height="35" fill="#ffffff" stroke="#000000" stroke-width="1"></rect></g><g transform="translate(490, 595)"><rect x="0" y="0" width="35" height="35" fill="#ffffff" stroke="#000000" stroke-width="1"></rect></g><g transform="translate(525, 595)"><rect x="0" y="0" width="35" height="35" fill="#ffffff" stroke="#000000" stroke-width="1"></rect></g><g transform="translate(560, 595)"><rect x="0" y="0" width="35" height="35" fill="#ffffff" stroke="#000000" stroke-width="1"></rect></g><g transform="translate(595, 595)"><rect x="0" y="0" width="35" height="35" fill="#ffffff" stroke="#000000" stroke-width="1"></rect></g><g transform="translate(630, 595)"><rect x="0" y="0" width="35" height="35" fill="#ffffff" stroke="#000000" stroke-width="1"></rect></g><g transform="translate(280, 595)"><rect x="0" y="0" width="35" height="35" fill="#ffffff" stroke="#000000" stroke-width="1"></rect><text x="0.5" y="10.5" style="line-height: 1; font-family: Verdana; font-size: 10px; font-weight: normal; fill: #000000;">▸8</text></g><g transform="translate(315, 595)"><rect x="0" y="0" width="35" height="35" fill="#ffffff" stroke="#000000" stroke-width="1"></rect></g><g transform="translate(350, 595)"><rect x="0" y="0" width="35" height="35" fill="#ffffff" stroke="#000000" stroke-width="1"></rect></g><g transform="translate(385, 595)"><rect x="0" y="0" width="35" height="35" fill="#ffffff" stroke="#000000" stroke-width="1"></rect></g><g transform="translate(420, 595)"><rect x="0" y="0" width="35" height="35" fill="#ffffff" stroke="#000000" stroke-width="1"></rect></g><g transform="translate(490, 630)"><rect x="0" y="0" width="35" height="35" fill="#ffffff" stroke="#000000" stroke-width="1"></rect></g><g transform="translate(595, 630)"><rect x="0" y="0" width="35" height="35" fill="#ffffff" stroke="#000000" stroke-width="1"></rect></g><g transform="translate(315, 630)"><rect x="0" y="0" width="35" height="35" fill="#ffffff" stroke="#000000" stroke-width="1"></rect></g><g transform="translate(455, 420)"><rect x="0" y="0" width="35" height="35" fill="#d5d5d5" stroke="#000000" stroke-width="1"></rect><text y="31.5" style="line-height: 1; font-family: Verdana; font-size: 10px; font-weight: bold; fill: #ffffff;" x="26.5">1</text></g><g transform="translate(595, 420)"><rect x="0" y="0" width="35" height="35" fill="#ffffff" stroke="#000000" stroke-width="1"></rect></g><g transform="translate(315, 420)"><rect x="0" y="0" width="35" height="35" fill="#ffffff" stroke="#000000" stroke-width="1"></rect></g><g transform="translate(140, 420)"><rect x="0" y="0" width="35" height="35" fill="#ffffff" stroke="#000000" stroke-width="1"></rect><text x="0.5" y="10.5" style="line-height: 1; font-family: Verdana; font-size: 10px; font-weight: normal; fill: #000000;">▸9</text></g><g transform="translate(175, 420)"><rect x="0" y="0" width="35" height="35" fill="#ffffff" stroke="#000000" stroke-width="1"></rect></g><g transform="translate(210, 420)"><rect x="0" y="0" width="35" height="35" fill="#d5d5d5" stroke="#000000" stroke-width="1"></rect><text y="31.5" style="line-height: 1; font-family: Verdana; font-size: 10px; font-weight: bold; fill: #ffffff;" x="26.5">3</text></g><g transform="translate(245, 420)"><rect x="0" y="0" width="35" height="35" fill="#ffffff" stroke="#000000" stroke-width="1"></rect></g><g transform="translate(280, 420)"><rect x="0" y="0" width="35" height="35" fill="#ffffff" stroke="#000000" stroke-width="1"></rect></g><g transform="translate(350, 420)"><rect x="0" y="0" width="35" height="35" fill="#ffffff" stroke="#000000" stroke-width="1"></rect></g><g transform="translate(385, 420)"><rect x="0" y="0" width="35" height="35" fill="#ffffff" stroke="#000000" stroke-width="1"></rect></g><g transform="translate(420, 420)"><rect x="0" y="0" width="35" height="35" fill="#ffffff" stroke="#000000" stroke-width="1"></rect></g><g transform="translate(35, 420)"><rect x="0" y="0" width="35" height="35" fill="#ffffff" stroke="#000000" stroke-width="1"></rect></g><g transform="translate(490, 455)"><rect x="0" y="0" width="35" height="35" fill="#ffffff" stroke="#000000" stroke-width="1"></rect><text x="0.5" y="10.5" style="line-height: 1; font-family: Verdana; font-size: 10px; font-weight: normal; fill: #000000;">▾3</text></g><g transform="translate(595, 455)"><rect x="0" y="0" width="35" height="35" fill="#000000" stroke="#000000" stroke-width="1"></rect></g><g transform="translate(315, 455)"><rect x="0" y="0" width="35" height="35" fill="#ffffff" stroke="#000000" stroke-width="1"></rect></g><g transform="translate(175, 455)"><rect x="0" y="0" width="35" height="35" fill="#ffffff" stroke="#000000" stroke-width="1"></rect></g><g transform="translate(35, 455)"><rect x="0" y="0" width="35" height="35" fill="#ffffff" stroke="#000000" stroke-width="1"></rect></g><g transform="translate(315, 210)"><rect x="0" y="0" width="35" height="35" fill="#ffffff" stroke="#000000" stroke-width="1"></rect><text x="0.5" y="10.5" style="line-height: 1; font-family: Verdana; font-size: 10px; font-weight: normal; fill: #000000;">▾4</text></g><g transform="translate(175, 210)"><rect x="0" y="0" width="35" height="35" fill="#ffffff" stroke="#000000" stroke-width="1"></rect></g><g transform="translate(385, 210)"><rect x="0" y="0" width="35" height="35" fill="#d5d5d5" stroke="#000000" stroke-width="1"></rect><text y="31.5" style="line-height: 1; font-family: Verdana; font-size: 10px; font-weight: bold; fill: #ffffff;" x="26.5">4</text></g><g transform="translate(35, 210)"><rect x="0" y="0" width="35" height="35" fill="#ffffff" stroke="#000000" stroke-width="1"></rect></g><g transform="translate(595, 245)"><rect x="0" y="0" width="35" height="35" fill="#ffffff" stroke="#000000" stroke-width="1"></rect><text x="0.5" y="10.5" style="line-height: 1; font-family: Verdana; font-size: 10px; font-weight: normal; fill: #000000;">▾2</text></g><g transform="translate(315, 245)"><rect x="0" y="0" width="35" height="35" fill="#ffffff" stroke="#000000" stroke-width="1"></rect></g><g transform="translate(175, 245)"><rect x="0" y="0" width="35" height="35" fill="#ffffff" stroke="#000000" stroke-width="1"></rect></g><g transform="translate(385, 245)"><rect x="0" y="0" width="35" height="35" fill="#ffffff" stroke="#000000" stroke-width="1"></rect></g><g transform="translate(35, 245)"><rect x="0" y="0" width="35" height="35" fill="#ffffff" stroke="#000000" stroke-width="1"></rect></g><g transform="translate(455, 280)"><rect x="0" y="0" width="35" height="35" fill="#ffffff" stroke="#000000" stroke-width="1"></rect></g><g transform="translate(490, 280)"><rect x="0" y="0" width="35" height="35" fill="#ffffff" stroke="#000000" stroke-width="1"></rect></g><g transform="translate(525, 280)"><rect x="0" y="0" width="35" height="35" fill="#ffffff" stroke="#000000" stroke-width="1"></rect></g><g transform="translate(560, 280)"><rect x="0" y="0" width="35" height="35" fill="#ffffff" stroke="#000000" stroke-width="1"></rect></g><g transform="translate(595, 280)"><rect x="0" y="0" width="35" height="35" fill="#ffffff" stroke="#000000" stroke-width="1"></rect></g><g transform="translate(630, 280)"><rect x="0" y="0" width="35" height="35" fill="#ffffff" stroke="#000000" stroke-width="1"></rect></g><g transform="translate(315, 280)"><rect x="0" y="0" width="35" height="35" fill="#ffffff" stroke="#000000" stroke-width="1"></rect></g><g transform="translate(175, 280)"><rect x="0" y="0" width="35" height="35" fill="#ffffff" stroke="#000000" stroke-width="1"></rect></g><g transform="translate(385, 280)"><rect x="0" y="0" width="35" height="35" fill="#ffffff" stroke="#000000" stroke-width="1"></rect><text x="0.5" y="10.5" style="line-height: 1; font-family: Verdana; font-size: 10px; font-weight: normal; fill: #000000;">▸7</text></g><g transform="translate(420, 280)"><rect x="0" y="0" width="35" height="35" fill="#ffffff" stroke="#000000" stroke-width="1"></rect></g><g transform="translate(35, 280)"><rect x="0" y="0" width="35" height="35" fill="#ffffff" stroke="#000000" stroke-width="1"></rect></g><g transform="translate(595, 315)"><rect x="0" y="0" width="35" height="35" fill="#ffffff" stroke="#000000" stroke-width="1"></rect></g><g transform="translate(315, 315)"><rect x="0" y="0" width="35" height="35" fill="#ffffff" stroke="#000000" stroke-width="1"></rect></g><g transform="translate(175, 315)"><rect x="0" y="0" width="35" height="35" fill="#000000" stroke="#000000" stroke-width="1"></rect></g><g transform="translate(385, 315)"><rect x="0" y="0" width="35" height="35" fill="#ffffff" stroke="#000000" stroke-width="1"></rect></g><g transform="translate(35, 315)"><rect x="0" y="0" width="35" height="35" fill="#ffffff" stroke="#000000" stroke-width="1"></rect></g><g transform="translate(595, 350)"><rect x="0" y="0" width="35" height="35" fill="#ffffff" stroke="#000000" stroke-width="1"></rect></g><g transform="translate(315, 350)"><rect x="0" y="0" width="35" height="35" fill="#ffffff" stroke="#000000" stroke-width="1"></rect></g><g transform="translate(175, 350)"><rect x="0" y="0" width="35" height="35" fill="#ffffff" stroke="#000000" stroke-width="1"></rect></g><g transform="translate(385, 350)"><rect x="0" y="0" width="35" height="35" fill="#ffffff" stroke="#000000" stroke-width="1"></rect></g><g transform="translate(35, 350)"><rect x="0" y="0" width="35" height="35" fill="#ffffff" stroke="#000000" stroke-width="1"></rect></g><g transform="translate(595, 385)"><rect x="0" y="0" width="35" height="35" fill="#ffffff" stroke="#000000" stroke-width="1"></rect></g><g transform="translate(315, 385)"><rect x="0" y="0" width="35" height="35" fill="#ffffff" stroke="#000000" stroke-width="1"></rect></g><g transform="translate(175, 385)"><rect x="0" y="0" width="35" height="35" fill="#ffffff" stroke="#000000" stroke-width="1"></rect></g><g transform="translate(385, 385)"><rect x="0" y="0" width="35" height="35" fill="#ffffff" stroke="#000000" stroke-width="1"></rect></g><g transform="translate(35, 385)"><rect x="0" y="0" width="35" height="35" fill="#d5d5d5" stroke="#000000" stroke-width="1"></rect><text y="31.5" style="line-height: 1; font-family: Verdana; font-size: 10px; font-weight: bold; fill: #ffffff;" x="26.5">6</text></g><g transform="translate(175, 175)"><rect x="0" y="0" width="35" height="35" fill="#ffffff" stroke="#000000" stroke-width="1"></rect></g><g transform="translate(0, 175)"><rect x="0" y="0" width="35" height="35" fill="#ffffff" stroke="#000000" stroke-width="1"></rect><text x="0.5" y="10.5" style="line-height: 1; font-family: Verdana; font-size: 10px; font-weight: normal; fill: #000000;">▸1</text></g><g transform="translate(35, 175)"><rect x="0" y="0" width="35" height="35" fill="#d5d5d5" stroke="#000000" stroke-width="1"></rect><text y="31.5" style="line-height: 1; font-family: Verdana; font-size: 10px; font-weight: bold; fill: #ffffff;" x="26.5">2</text></g><g transform="translate(70, 175)"><rect x="0" y="0" width="35" height="35" fill="#ffffff" stroke="#000000" stroke-width="1"></rect></g><g transform="translate(105, 175)"><rect x="0" y="0" width="35" height="35" fill="#ffffff" stroke="#000000" stroke-width="1"></rect></g><g transform="translate(140, 175)"><rect x="0" y="0" width="35" height="35" fill="#ffffff" stroke="#000000" stroke-width="1"></rect></g><g transform="translate(210, 175)"><rect x="0" y="0" width="35" height="35" fill="#ffffff" stroke="#000000" stroke-width="1"></rect></g><g transform="translate(245, 175)"><rect x="0" y="0" width="35" height="35" fill="#ffffff" stroke="#000000" stroke-width="1"></rect></g><g transform="translate(385, 175)"><rect x="0" y="0" width="35" height="35" fill="#ffffff" stroke="#000000" stroke-width="1"></rect><text x="0.5" y="10.5" style="line-height: 1; font-family: Verdana; font-size: 10px; font-weight: normal; fill: #000000;">▾10</text></g><g transform="translate(175, 0)"><rect x="0" y="0" width="35" height="35" fill="#ffffff" stroke="#000000" stroke-width="1"></rect><text x="0.5" y="10.5" style="line-height: 1; font-family: Verdana; font-size: 10px; font-weight: normal; fill: #000000;">▾5</text></g><g transform="translate(70, 0)"><rect x="0" y="0" width="35" height="35" fill="#ffffff" stroke="#000000" stroke-width="1"></rect><text x="0.5" y="10.5" style="line-height: 1; font-family: Verdana; font-size: 10px; font-weight: normal; fill: #000000;">▸11</text></g><g transform="translate(105, 0)"><rect x="0" y="0" width="35" height="35" fill="#ffffff" stroke="#000000" stroke-width="1"></rect></g><g transform="translate(140, 0)"><rect x="0" y="0" width="35" height="35" fill="#ffffff" stroke="#000000" stroke-width="1"></rect></g><g transform="translate(210, 0)"><rect x="0" y="0" width="35" height="35" fill="#ffffff" stroke="#000000" stroke-width="1"></rect></g><g transform="translate(245, 0)"><rect x="0" y="0" width="35" height="35" fill="#ffffff" stroke="#000000" stroke-width="1"></rect></g><g transform="translate(280, 0)"><rect x="0" y="0" width="35" height="35" fill="#ffffff" stroke="#000000" stroke-width="1"></rect></g><g transform="translate(315, 0)"><rect x="0" y="0" width="35" height="35" fill="#ffffff" stroke="#000000" stroke-width="1"></rect></g><g transform="translate(175, 35)"><rect x="0" y="0" width="35" height="35" fill="#ffffff" stroke="#000000" stroke-width="1"></rect></g><g transform="translate(175, 70)"><rect x="0" y="0" width="35" height="35" fill="#ffffff" stroke="#000000" stroke-width="1"></rect></g><g transform="translate(175, 105)"><rect x="0" y="0" width="35" height="35" fill="#d5d5d5" stroke="#000000" stroke-width="1"></rect><text y="31.5" style="line-height: 1; font-family: Verdana; font-size: 10px; font-weight: bold; fill: #ffffff;" x="26.5">5</text></g><g transform="translate(175, 140)"><rect x="0" y="0" width="35" height="35" fill="#ffffff" stroke="#000000" stroke-width="1"></rect></g><g transform="translate(35, 140)"><rect x="0" y="0" width="35" height="35" fill="#ffffff" stroke="#000000" stroke-width="1"></rect><text x="0.5" y="10.5" style="line-height: 1; font-family: Verdana; font-size: 10px; font-weight: normal; fill: #000000;">▾12</text></g></g><g transform="translate(0, 683)"><g><rect x="4" y="3" width="35" height="35" fill="#000000"></rect><rect x="39" y="3" width="35" height="35" fill="#000000"></rect><rect x="74" y="3" width="35" height="35" fill="#000000"></rect><rect x="109" y="3" width="35" height="35" fill="#000000"></rect><rect x="144" y="3" width="35" height="35" fill="#000000"></rect><rect x="179" y="3" width="35" height="35" fill="#000000"></rect></g><g transform="translate(0, 0)"><rect x="0" y="0" width="35" height="35" fill="#d5d5d5" stroke="#000000" stroke-width="1"></rect><text y="23.75" style="line-height: 1; font-family: Verdana; font-size: 16px; font-weight: bold; fill: #ffffff;" x="13.5">1</text></g><g transform="translate(35, 0)"><rect x="0" y="0" width="35" height="35" fill="#d5d5d5" stroke="#000000" stroke-width="1"></rect><text y="23.75" style="line-height: 1; font-family: Verdana; font-size: 16px; font-weight: bold; fill: #ffffff;" x="13.5">2</text></g><g transform="translate(70, 0)"><rect x="0" y="0" width="35" height="35" fill="#d5d5d5" stroke="#000000" stroke-width="1"></rect><text y="23.75" style="line-height: 1; font-family: Verdana; font-size: 16px; font-weight: bold; fill: #ffffff;" x="13.5">3</text></g><g transform="translate(105, 0)"><rect x="0" y="0" width="35" height="35" fill="#d5d5d5" stroke="#000000" stroke-width="1"></rect><text y="23.75" style="line-height: 1; font-family: Verdana; font-size: 16px; font-weight: bold; fill: #ffffff;" x="13.5">4</text></g><g transform="translate(140, 0)"><rect x="0" y="0" width="35" height="35" fill="#d5d5d5" stroke="#000000" stroke-width="1"></rect><text y="23.75" style="line-height: 1; font-family: Verdana; font-size: 16px; font-weight: bold; fill: #ffffff;" x="13.5">5</text></g><g transform="translate(175, 0)"><rect x="0" y="0" width="35" height="35" fill="#d5d5d5" stroke="#000000" stroke-width="1"></rect><text y="23.75" style="line-height: 1; font-family: Verdana; font-size: 16px; font-weight: bold; fill: #ffffff;" x="13.5">6</text></g></g><text transform="translate(0, 763)" style="line-height: 1; font-family: Verdana; font-size: 12px; font-weight: normal; fill: #000000;"><tspan x="0" y="-15">Created with XWords – the free online crossword puzzle generator</tspan><tspan x="0" y="0">https://www.xwords-generator.de/en</tspan></text></svg>